<svg width="70" height="70" viewBox="0 0 70 70" fill="none" xmlns="http://www.w3.org/2000/svg">
<rect width="70" height="70" rx="10" fill="#FFF3CC"/>
<g clip-path="url(#clip0_508_47)">
<path d="M36.5104 14.666C34.1444 14.666 31.9113 15.1973 29.9106 16.1437C24.6307 18.5927 20.978 23.9306 20.978 30.1319V32.199V32.6971L17.8317 38.7075C17.0348 40.2267 17.7902 41.4637 19.5003 41.4637H20.978V41.4969V44.1119V47.1752C20.978 48.96 22.4391 50.4211 24.224 50.4211L28.6819 49.757L28.6902 54.215V54.2482C28.7151 54.821 29.1966 55.1945 29.7943 55.0949L45.858 52.2558C46.464 52.1478 46.9621 51.5584 46.9621 50.9441V50.2385V49.6657V41.4969C50.042 38.6743 51.968 34.6148 51.968 30.1153C51.9597 21.5813 45.0444 14.666 36.5104 14.666ZM44.3969 38.1264C40.6861 41.8372 35.0244 42.4266 30.6992 39.878L30.6743 39.8614C28.9725 41.1482 27.1461 41.3723 25.876 41.1731C25.4526 41.1067 25.3613 40.5339 25.7515 40.3429C26.9137 39.7701 27.6525 38.6328 28.0759 37.7113L27.9597 37.62C24.033 33.1869 24.1908 26.4045 28.4329 22.1624C32.841 17.7542 39.9887 17.7542 44.3969 22.1624C48.8051 26.5622 48.8051 33.7182 44.3969 38.1264Z" fill="#FAC000"/>
<path d="M40.7194 31.3762C41.4025 31.3762 41.9563 30.8224 41.9563 30.1393C41.9563 29.4561 41.4025 28.9023 40.7194 28.9023C40.0362 28.9023 39.4824 29.4561 39.4824 30.1393C39.4824 30.8224 40.0362 31.3762 40.7194 31.3762Z" fill="#FAC000"/>
<path d="M32.1022 31.3762C32.7853 31.3762 33.3391 30.8224 33.3391 30.1393C33.3391 29.4561 32.7853 28.9023 32.1022 28.9023C31.419 28.9023 30.8652 29.4561 30.8652 30.1393C30.8652 30.8224 31.419 31.3762 32.1022 31.3762Z" fill="#FAC000"/>
<path d="M36.4108 31.3762C37.0939 31.3762 37.6477 30.8224 37.6477 30.1393C37.6477 29.4561 37.0939 28.9023 36.4108 28.9023C35.7276 28.9023 35.1738 29.4561 35.1738 30.1393C35.1738 30.8224 35.7276 31.3762 36.4108 31.3762Z" fill="#FAC000"/>
</g>
<defs>
<clipPath id="clip0_508_47">
<rect width="40.445" height="40.445" fill="white" transform="translate(14.5186 14.666)"/>
</clipPath>
</defs>
</svg>
