<svg width="70" height="70" viewBox="0 0 70 70" fill="none" xmlns="http://www.w3.org/2000/svg">
<rect width="70" height="70" rx="10" fill="#FFF3CC"/>
<path d="M44.1508 18.6602H44.0597C40.4345 18.6602 37.2284 20.5718 35.3842 23.3927C33.54 20.5718 30.3339 18.6602 26.7087 18.6602H26.6175C23.8969 18.686 21.2964 19.7808 19.3812 21.7066C17.466 23.6323 16.3909 26.2335 16.3894 28.9449C16.3894 32.3118 17.8691 37.0891 20.7545 41.0202C26.2519 48.5107 35.3842 55.0641 35.3842 55.0641C35.3842 55.0641 44.5165 48.5119 50.0126 41.0202C52.8992 37.0891 54.3777 32.3118 54.3777 28.9449C54.3763 26.2338 53.3013 23.6327 51.3863 21.707C49.4714 19.7812 46.8712 18.6863 44.1508 18.6602ZM42.8472 41.5965C42.4344 41.5949 42.0316 41.469 41.6919 41.2352C41.3521 41.0014 41.0913 40.6707 40.9435 40.2865H38.7761C38.6334 40.2856 38.4945 40.2404 38.3789 40.157C38.2632 40.0737 38.1766 39.9564 38.131 39.8216L37.4653 37.8228L35.3587 45.1583C35.3176 45.2995 35.2318 45.4236 35.1139 45.5121C34.996 45.6005 34.8526 45.6484 34.705 45.6486H34.6625C34.5086 45.6412 34.3619 45.5814 34.2469 45.4791C34.1319 45.3769 34.0556 45.2384 34.0308 45.0869L31.8598 32.0745L30.2731 39.7744C30.2368 39.9207 30.1523 40.0506 30.0331 40.1434C29.914 40.2362 29.7671 40.2866 29.6159 40.2865H26.5629C26.4714 40.2904 26.38 40.2757 26.2943 40.2435C26.2086 40.2113 26.1303 40.1621 26.0642 40.0989C25.9981 40.0357 25.9455 39.9599 25.9095 39.8759C25.8736 39.792 25.855 39.7016 25.855 39.6104C25.855 39.5191 25.8736 39.4287 25.9095 39.3448C25.9455 39.2608 25.9981 39.185 26.0642 39.1218C26.1303 39.0586 26.2086 39.0094 26.2943 38.9772C26.38 38.945 26.4714 38.9303 26.5629 38.9342H29.0813L31.3289 28.5817C31.3658 28.4286 31.4549 28.2931 31.5809 28.1982C31.707 28.1034 31.8622 28.0551 32.0201 28.0617C32.1779 28.0683 32.3285 28.1293 32.4462 28.2343C32.5639 28.3393 32.6413 28.4818 32.6653 28.6374L34.8824 41.9112L36.7704 35.3482C36.8097 35.2099 36.8928 35.0881 37.0073 35.0008C37.1218 34.9135 37.2616 34.8655 37.4058 34.8639H37.4191C37.5619 34.8639 37.701 34.9089 37.8166 34.9924C37.9323 35.0759 38.0185 35.1936 38.063 35.3288L39.267 38.9378H40.9168C41.0341 38.5827 41.2476 38.2667 41.5337 38.0249C41.8198 37.783 42.1674 37.6246 42.5381 37.5672C42.9088 37.5098 43.2883 37.5555 43.6345 37.6994C43.9808 37.8433 44.2805 38.0798 44.5004 38.3827C44.7204 38.6856 44.852 39.0431 44.881 39.4159C44.9099 39.7887 44.8348 40.1622 44.6642 40.4951C44.4936 40.8281 44.2339 41.1076 43.9139 41.3028C43.5939 41.498 43.2261 41.6013 42.8509 41.6013L42.8472 41.5965Z" fill="#FAC000"/>
<circle cx="35.803" cy="37.003" r="10.8585" fill="#FAC000"/>
<g clip-path="url(#clip0_508_48)">
<path d="M44.6379 34.3019L42.3346 29.1195C42.2424 28.9117 42.036 28.7776 41.8086 28.7776H40.6693C40.6677 28.7775 40.6663 28.7776 40.6647 28.7776H37.0959C36.9986 28.5049 36.837 28.2654 36.6261 28.0752V27.0501C36.6261 26.4141 36.1105 25.8984 35.4745 25.8984C34.8385 25.8984 34.3228 26.4141 34.3228 27.0501V28.0752C34.1119 28.2654 33.9503 28.5049 33.8531 28.7776H30.2852C30.2828 28.7776 30.2805 28.7775 30.2781 28.7776H29.1404C28.9129 28.7776 28.7065 28.9117 28.6143 29.1195L26.311 34.3019C26.2771 34.3782 26.2612 34.4575 26.2612 34.5358V35.1117C26.2612 35.2877 26.3015 35.4642 26.3827 35.6268L26.9585 36.7784C27.1537 37.1684 27.5526 37.415 27.9887 37.415H31.4437C31.8798 37.415 32.2787 37.1684 32.4739 36.7784L33.0497 35.6268C33.1309 35.4642 33.1712 35.2877 33.1712 35.1117V34.5358C33.1712 34.4575 33.1553 34.3782 33.1214 34.3019L31.178 29.9292H33.8531C33.9504 30.2019 34.1119 30.4414 34.3228 30.6316V40.9689L32.9327 42.359C32.6032 42.6882 32.5048 43.1837 32.683 43.6138C32.8613 44.0443 33.2811 44.3249 33.747 44.3249H37.2019C37.6678 44.3249 38.0876 44.0443 38.2659 43.6138C38.4442 43.1837 38.3458 42.6882 38.0162 42.359L36.6261 40.9689V30.6316C36.837 30.4414 36.9986 30.202 37.0959 29.9292H39.771L37.8275 34.3019C37.7936 34.3782 37.7777 34.4575 37.7778 34.5358V35.1117C37.7778 35.2877 37.8181 35.4642 37.8992 35.6268L38.4751 36.7784C38.6702 37.1684 39.0692 37.415 39.5053 37.415H42.9602C43.3963 37.415 43.7953 37.1684 43.9904 36.7784L44.5662 35.6268C44.6474 35.4642 44.6877 35.2877 44.6877 35.1117V34.5358C44.6878 34.4575 44.6719 34.3782 44.6379 34.3019ZM31.7094 33.96H27.723L29.5146 29.9292H29.9179L31.7094 33.96ZM35.4745 29.9292C35.157 29.9292 34.8986 29.6708 34.8986 29.3534C34.8986 29.036 35.157 28.7776 35.4745 28.7776C35.7919 28.7776 36.0503 29.036 36.0503 29.3534C36.0503 29.6708 35.7919 29.9292 35.4745 29.9292ZM39.2396 33.96L41.031 29.9292H41.4343L43.2259 33.96H39.2396Z" fill="white"/>
</g>
<defs>
<clipPath id="clip0_508_48">
<rect width="18.4265" height="18.4265" fill="white" transform="translate(26.2612 25.8984)"/>
</clipPath>
</defs>
</svg>
