<svg width="70" height="70" viewBox="0 0 70 70" fill="none" xmlns="http://www.w3.org/2000/svg">
<rect width="70" height="70" rx="10" fill="#FFF3CC"/>
<path d="M24.659 23.3773C24.659 25.9591 25.7078 28.4351 27.5746 30.2607C29.4414 32.0863 31.9733 33.1119 34.6133 33.1119C37.2533 33.1119 39.7852 32.0863 41.652 30.2607C43.5188 28.4351 44.5676 25.9591 44.5676 23.3773C44.5676 20.7955 43.5188 18.3194 41.652 16.4938C39.7852 14.6682 37.2533 13.6426 34.6133 13.6426C31.9733 13.6426 29.4414 14.6682 27.5746 16.4938C25.7078 18.3194 24.659 20.7955 24.659 23.3773ZM32.0081 38.6029L33.4546 40.9605L30.8649 50.3834L28.0653 39.2113C27.9097 38.5953 27.3031 38.1922 26.6732 38.3519C21.2295 39.6828 17.1934 44.5045 17.1934 50.2465C17.1934 51.5394 18.2666 52.5813 19.5808 52.5813H29.8228C29.8228 52.5813 29.8228 52.5813 29.8306 52.5813H30.2583H38.9683H39.396C39.396 52.5813 39.396 52.5813 39.4038 52.5813H49.6458C50.9678 52.5813 52.0332 51.5318 52.0332 50.2465C52.0332 44.5045 47.9971 39.6828 42.5534 38.3519C41.9235 38.1998 41.3169 38.6029 41.1613 39.2113L38.3617 50.3834L35.772 40.9605L37.2185 38.6029C37.7162 37.7891 37.1174 36.7624 36.1531 36.7624H34.6133H33.0813C32.117 36.7624 31.5182 37.7967 32.0159 38.6029H32.0081Z" fill="#FAC000"/>
<path fill-rule="evenodd" clip-rule="evenodd" d="M38.7124 48.6325C38.7124 43.5389 42.8412 39.4102 47.9347 39.4102C53.0283 39.4102 57.1571 43.5389 57.1571 48.6325C57.1571 53.726 53.0283 57.8548 47.9347 57.8548C42.8412 57.8548 38.7124 53.726 38.7124 48.6325ZM51.3494 46.9167C51.4061 46.841 51.4472 46.7548 51.4701 46.6631C51.4931 46.5714 51.4975 46.476 51.4831 46.3826C51.4686 46.2891 51.4357 46.1995 51.3861 46.119C51.3365 46.0385 51.2714 45.9687 51.1945 45.9137C51.1175 45.8587 51.0304 45.8197 50.9382 45.7988C50.846 45.778 50.7505 45.7758 50.6574 45.7924C50.5643 45.809 50.4755 45.8441 50.3962 45.8955C50.3168 45.9469 50.2486 46.0137 50.1954 46.0918L47.1345 50.3767L45.5984 48.8406C45.4639 48.7153 45.2861 48.647 45.1023 48.6503C44.9185 48.6535 44.7431 48.728 44.6132 48.858C44.4832 48.9879 44.4087 49.1633 44.4055 49.3471C44.4022 49.5309 44.4705 49.7087 44.5958 49.8432L46.724 51.9714C46.7968 52.0442 46.8846 52.1002 46.9813 52.1357C47.0779 52.1711 47.1811 52.1851 47.2837 52.1766C47.3863 52.1682 47.4859 52.1375 47.5754 52.0867C47.665 52.0359 47.7424 51.9662 47.8023 51.8825L51.3494 46.9167Z" fill="white"/>
</svg>
