<?xml version="1.0" encoding="UTF-8" standalone="no"?>
<svg
   width="486.92206"
   height="555.00012"
   viewBox="0 0 486.92206 555.00012"
   fill="none"
   version="1.1"
   id="svg97"
   xmlns="http://www.w3.org/2000/svg"
   xmlns:svg="http://www.w3.org/2000/svg">
  <defs
     id="defs97" />
  <path
     d="m 45.352018,518.461 c 0,0 0.21,-4.382 4.49,-3.873 z"
     fill="#3f3d56"
     id="path1" />
  <path
     d="m 44.142018,514.292 c 1.19,0 2.15,-0.961 2.15,-2.146 0,-1.185 -0.96,-2.146 -2.15,-2.146 -1.18,0 -2.14,0.961 -2.14,2.146 0,1.185 0.96,2.146 2.14,2.146 z"
     fill="#fac000"
     id="path2" />
  <path
     d="m 44.402018,515.758 h -0.61 v 4.24 h 0.61 z"
     fill="#3f3d56"
     id="path3" />
  <path
     d="m 311.05201,510.731 -5.83,0.006 c -0.65,1.45 0.24,3.146 1.38,4.255 1.14,1.108 2.57,1.959 3.41,3.308 1.87,2.993 0.11,6.93 0.72,10.404 0.83,4.678 5.74,7.622 7.23,12.133 0.84,2.551 0.46,5.48 -1.01,7.728 -0.28,0.415 -0.59,0.824 -0.69,1.311 -0.12,0.662 0.22,1.39 0.82,1.703 0.6,0.314 1.39,0.189 1.87,-0.293 -0.46,0.524 -0.31,1.408 0.2,1.876 0.52,0.469 1.29,0.568 1.97,0.424 2.22,-0.467 3.33,-3.023 3.42,-5.283 0.09,-2.259 -0.48,-4.549 -0.04,-6.767 0.29,3.183 3.88,5.204 4.17,8.387 0.05,0.59 -3.21,2.364 -2.91,2.873 0.77,1.285 2.6,1.29 4.09,1.136 2.56,-0.266 5.4,-0.679 7.01,-2.693 1.08,-1.356 1.36,-3.182 1.4,-4.918 0.09,-4.532 -1.26,-9.083 -3.81,-12.831 -3.39,-4.988 -8.78,-8.523 -11.44,-13.936 -0.91,-1.84 -1.46,-3.834 -2.34,-5.686 -0.88,-1.852 -2.18,-3.623 -4.05,-4.454 -1.87,-0.831 -4.39,-0.421 -5.48,1.321"
     fill="#3f3d56"
     id="path4" />
  <path
     d="m 329.11201,550.555 c -0.12,0 -0.23,-0.025 -0.34,-0.075 -0.08,-0.039 -0.12,-0.138 -0.08,-0.221 0.04,-0.083 0.14,-0.12 0.22,-0.081 0.19,0.086 0.36,0.03 0.48,-0.032 0.24,-0.128 0.42,-0.389 0.46,-0.651 0.08,-0.505 -0.18,-1.021 -0.4,-1.476 -0.65,-1.327 -1.29,-2.749 -1.39,-4.251 -0.11,-1.694 0.59,-3.272 1.78,-4.02 0.89,-0.556 2.06,-0.701 3.3,-0.41 1.06,0.25 2.04,0.774 3.03,1.335 0.08,0.045 0.11,0.147 0.06,0.227 -0.04,0.08 -0.15,0.108 -0.23,0.063 -1,-0.57 -1.92,-1.061 -2.94,-1.301 -1.15,-0.271 -2.23,-0.14 -3.04,0.368 -1.09,0.684 -1.73,2.143 -1.63,3.716 0.1,1.442 0.72,2.829 1.36,4.126 0.23,0.475 0.52,1.065 0.43,1.673 -0.06,0.366 -0.3,0.716 -0.64,0.894 -0.14,0.077 -0.29,0.116 -0.43,0.116 z"
     fill="#2f2e41"
     id="path5" />
  <path
     d="m 319.42201,513.626 c 0.85,1.697 0.4,3.951 -1.04,5.188 -0.31,0.265 -0.66,0.488 -0.94,0.787 -0.27,0.3 -0.48,0.706 -0.41,1.108 -0.94,-0.938 -1.9,-1.901 -2.48,-3.103 -0.57,-1.203 -0.68,-2.712 0.06,-3.816 0.36,-0.527 0.88,-0.922 1.28,-1.413 0.4,-0.491 0.69,-1.159 0.47,-1.756"
     fill="#2f2e41"
     id="path6" />
  <path
     d="m 336.40201,546.219 c -0.45,1.382 0.3,2.972 1.52,3.762 1.22,0.789 2.79,0.871 4.2,0.514 2.73,-0.691 4.96,-3.025 5.54,-5.777 0.24,-1.144 0.22,-2.371 0.77,-3.406 0.34,-0.651 0.9,-1.239 0.92,-1.974 0.01,-0.597 -0.38,-1.164 -0.91,-1.442 -0.52,-0.278 -1.17,-0.287 -1.74,-0.107 -1.35,0.432 -2.19,1.806 -2.62,3.162 -0.43,1.357 -0.59,2.808 -1.22,4.086 -0.62,1.278 -1.92,2.393 -3.33,2.198 -1.22,-0.168 -2.25,-1.268 -3.47,-1.118"
     fill="#3f3d56"
     id="path7" />
  <path
     d="m 113.88201,385.33 c -45.559992,0 -82.489992,-36.916 -82.489992,-82.454 0,-45.538 36.93,-82.454 82.489992,-82.454 45.56,0 82.49,36.916 82.49,82.454 0,45.538 -36.93,82.454 -82.49,82.454 z"
     fill="#fac000"
     id="path8" />
  <path
     d="m 201.61201,362.803 c -45.56,0 -82.49,-36.916 -82.49,-82.454 0,-45.539 36.93,-82.454 82.49,-82.454 45.56,0 82.49,36.915 82.49,82.454 0,45.538 -36.93,82.454 -82.49,82.454 z"
     fill="#fac000"
     id="path9" />
  <path
     d="m 298.19201,363.603 c -45.56,0 -82.49,-36.916 -82.49,-82.454 0,-45.538 36.93,-82.454 82.49,-82.454 45.56,0 82.49,36.916 82.49,82.454 0,45.538 -36.93,82.454 -82.49,82.454 z"
     fill="#fac000"
     id="path10" />
  <path
     d="m 329.57201,385.33 c -45.55,0 -82.49,-36.916 -82.49,-82.454 0,-45.538 36.94,-82.454 82.49,-82.454 45.56,0 82.5,36.916 82.5,82.454 0,45.538 -36.94,82.454 -82.5,82.454 z"
     fill="#fac000"
     id="path11" />
  <path
     d="m 382.70201,392.572 c -45.56,0 -82.49,-36.916 -82.49,-82.454 0,-45.538 36.93,-82.454 82.49,-82.454 45.56,0 82.49,36.916 82.49,82.454 0,45.538 -36.93,82.454 -82.49,82.454 z"
     fill="#fac000"
     id="path12" />
  <path
     d="m 404.43201,327.412 c -45.56,0 -82.49,-36.916 -82.49,-82.454 0,-45.538 36.93,-82.454 82.49,-82.454 45.56,0 82.49,36.916 82.49,82.454 0,45.538 -36.93,82.454 -82.49,82.454 z"
     fill="#fac000"
     id="path13" />
  <path
     d="m 380.29201,251.791 c -45.56,0 -82.5,-36.916 -82.5,-82.454 0,-45.538 36.94,-82.4542 82.5,-82.4542 45.55,0 82.49,36.9162 82.49,82.4542 0,45.538 -36.94,82.454 -82.49,82.454 z"
     fill="#fac000"
     id="path14" />
  <path
     d="m 334.41201,251.791 c -45.56,0 -82.5,-36.916 -82.5,-82.454 0,-45.538 36.94,-82.4542 82.5,-82.4542 45.56,0 82.49,36.9162 82.49,82.4542 0,45.538 -36.93,82.454 -82.49,82.454 z"
     fill="#fac000"
     id="path15" />
  <path
     d="m 307.85201,218.002 c -45.56,0 -82.5,-36.916 -82.5,-82.454 0,-45.5383 36.94,-82.4542 82.5,-82.4542 45.56,0 82.49,36.9159 82.49,82.4542 0,45.538 -36.93,82.454 -82.49,82.454 z"
     fill="#fac000"
     id="path16" />
  <path
     d="m 240.24201,255.006 c -45.56,0 -82.49,-36.916 -82.49,-82.454 0,-45.538 36.93,-82.4543 82.49,-82.4543 45.56,0 82.49,36.9163 82.49,82.4543 0,45.538 -36.93,82.454 -82.49,82.454 z"
     fill="#fac000"
     id="path17" />
  <path
     d="m 82.492018,327.412 c -45.56,0 -82.491999980148,-36.916 -82.491999980148,-82.454 0,-45.538 36.931999980148,-82.454 82.491999980148,-82.454 45.559992,0 82.489992,36.916 82.489992,82.454 0,45.538 -36.93,82.454 -82.489992,82.454 z"
     fill="#fac000"
     id="path18" />
  <path
     d="m 129.98201,286.381 c -45.559992,0 -82.489992,-36.916 -82.489992,-82.454 0,-45.538 36.93,-82.454 82.489992,-82.454 45.56,0 82.49,36.916 82.49,82.454 0,45.538 -36.93,82.454 -82.49,82.454 z"
     fill="#fac000"
     id="path19" />
  <path
     d="m 160.56201,245.349 c -45.56,0 -82.489992,-36.915 -82.489992,-82.454 0,-45.538 36.929992,-82.4536 82.489992,-82.4536 45.56,0 82.5,36.9156 82.5,82.4536 0,45.539 -36.94,82.454 -82.5,82.454 z"
     fill="#fac000"
     id="path20" />
  <path
     d="m 218.51201,183.412 c -45.56,0 -82.49,-36.916 -82.49,-82.454 0,-45.5382 36.93,-82.4541 82.49,-82.4541 45.56,0 82.49,36.9159 82.49,82.4541 0,45.538 -36.93,82.454 -82.49,82.454 z"
     fill="#fac000"
     id="path21" />
  <path
     d="m 110.66201,251.791 c -45.559992,0 -82.489992,-36.916 -82.489992,-82.454 0,-45.538 36.93,-82.4542 82.489992,-82.4542 45.56,0 82.5,36.9162 82.5,82.4542 0,45.538 -36.94,82.454 -82.5,82.454 z"
     fill="#fac000"
     id="path22" />
  <g
     opacity="0.1"
     id="g37"
     transform="translate(-991.99799)">
    <path
       d="m 1105.88,385.326 c -45.56,0 -82.49,-36.916 -82.49,-82.454 0,-45.538 36.93,-82.454 82.49,-82.454 45.56,0 82.49,36.916 82.49,82.454 0,45.538 -36.93,82.454 -82.49,82.454 z"
       fill="#000000"
       id="path23" />
    <path
       d="m 1193.61,362.799 c -45.56,0 -82.49,-36.916 -82.49,-82.454 0,-45.538 36.93,-82.454 82.49,-82.454 45.56,0 82.49,36.916 82.49,82.454 0,45.538 -36.93,82.454 -82.49,82.454 z"
       fill="#000000"
       id="path24" />
    <path
       d="m 1290.19,363.607 c -45.56,0 -82.49,-36.916 -82.49,-82.454 0,-45.538 36.93,-82.454 82.49,-82.454 45.56,0 82.49,36.916 82.49,82.454 0,45.538 -36.93,82.454 -82.49,82.454 z"
       fill="#000000"
       id="path25" />
    <path
       d="m 1321.57,385.326 c -45.55,0 -82.49,-36.916 -82.49,-82.454 0,-45.538 36.94,-82.454 82.49,-82.454 45.56,0 82.5,36.916 82.5,82.454 0,45.538 -36.94,82.454 -82.5,82.454 z"
       fill="#000000"
       id="path26" />
    <path
       d="m 1374.7,392.564 c -45.56,0 -82.49,-36.916 -82.49,-82.454 0,-45.538 36.93,-82.454 82.49,-82.454 45.56,0 82.49,36.916 82.49,82.454 0,45.538 -36.93,82.454 -82.49,82.454 z"
       fill="#000000"
       id="path27" />
    <path
       d="m 1396.43,327.408 c -45.56,0 -82.49,-36.916 -82.49,-82.454 0,-45.538 36.93,-82.454 82.49,-82.454 45.56,0 82.49,36.916 82.49,82.454 0,45.538 -36.93,82.454 -82.49,82.454 z"
       fill="#000000"
       id="path28" />
    <path
       d="m 1372.29,251.787 c -45.56,0 -82.5,-36.916 -82.5,-82.454 0,-45.538 36.94,-82.4541 82.5,-82.4541 45.55,0 82.49,36.9161 82.49,82.4541 0,45.538 -36.94,82.454 -82.49,82.454 z"
       fill="#000000"
       id="path29" />
    <path
       d="m 1326.41,251.787 c -45.56,0 -82.5,-36.916 -82.5,-82.454 0,-45.538 36.94,-82.4541 82.5,-82.4541 45.56,0 82.49,36.9161 82.49,82.4541 0,45.538 -36.93,82.454 -82.49,82.454 z"
       fill="#000000"
       id="path30" />
    <path
       d="m 1299.85,218.002 c -45.56,0 -82.5,-36.916 -82.5,-82.454 0,-45.5383 36.94,-82.4542 82.5,-82.4542 45.56,0 82.49,36.9159 82.49,82.4542 0,45.538 -36.93,82.454 -82.49,82.454 z"
       fill="#000000"
       id="path31" />
    <path
       d="m 1232.24,255.002 c -45.56,0 -82.49,-36.916 -82.49,-82.454 0,-45.538 36.93,-82.4542 82.49,-82.4542 45.56,0 82.49,36.9162 82.49,82.4542 0,45.538 -36.93,82.454 -82.49,82.454 z"
       fill="#000000"
       id="path32" />
    <path
       d="m 1074.49,327.408 c -45.56,0 -82.492,-36.916 -82.492,-82.454 0,-45.538 36.932,-82.454 82.492,-82.454 45.56,0 82.49,36.916 82.49,82.454 0,45.538 -36.93,82.454 -82.49,82.454 z"
       fill="#000000"
       id="path33" />
    <path
       d="m 1121.98,286.373 c -45.56,0 -82.49,-36.916 -82.49,-82.454 0,-45.538 36.93,-82.454 82.49,-82.454 45.56,0 82.49,36.916 82.49,82.454 0,45.538 -36.93,82.454 -82.49,82.454 z"
       fill="#000000"
       id="path34" />
    <path
       d="m 1152.56,245.346 c -45.56,0 -82.49,-36.916 -82.49,-82.454 0,-45.539 36.93,-82.4545 82.49,-82.4545 45.56,0 82.5,36.9155 82.5,82.4545 0,45.538 -36.94,82.454 -82.5,82.454 z"
       fill="#000000"
       id="path35" />
    <path
       d="m 1210.51,183.404 c -45.56,0 -82.49,-36.916 -82.49,-82.454 0,-45.538 36.93,-82.4539 82.49,-82.4539 45.56,0 82.49,36.9159 82.49,82.4539 0,45.538 -36.93,82.454 -82.49,82.454 z"
       fill="#000000"
       id="path36" />
    <path
       d="m 1102.66,251.787 c -45.56,0 -82.49,-36.916 -82.49,-82.454 0,-45.538 36.93,-82.4541 82.49,-82.4541 45.56,0 82.5,36.9161 82.5,82.4541 0,45.538 -36.94,82.454 -82.5,82.454 z"
       fill="#000000"
       id="path37" />
  </g>
  <path
     d="m 154.62201,447.37 c 0,0 -50.43,-42.368 -25.48,-102.698 l 24.95,-9.34 27.07,83.309 z"
     fill="#67647e"
     id="path38" />
  <path
     opacity="0.1"
     d="m 151.94201,332.469 -5.97,2.234 26.58,81.793 -23.19,25.1 c 1.92,1.911 3.11,2.911 3.11,2.911 l 26.55,-28.729 z"
     fill="#000000"
     id="path39" />
  <path
     d="m 382.39201,359.129 -6.55,26.213 c 0,0 -46.3,6.033 -77.16,2.242 -5.46,-0.774 -10.7,-2.663 -15.39,-5.549 -2.61,-1.541 -6.72,-2.21 -12.35,2 -9.63,7.259 -56.92,65.331 -49.26,125.58 0.59,4.54 2.67,8.757 5.9,12 3.24,3.243 7.45,5.33 11.99,5.938 9.43,1.285 18.44,4.693 26.36,9.969 l 23.4,15.575 -239.939992,-5.243 24.91,-30.141 c 0,0 17.04,-14.413 30.159992,-15.728 3.82,-0.379 6.98,-3.887 9.53,-8.654 14.93,-27.947 32.8,-54.225 52.16,-79.316 14.11,-18.277 25.95,-37.537 24.84,-49.636 -2.62,-28.834 0,-76.009 0,-76.009 l 49.82,-6.55 c 0,0 -6.55,62.912 53.76,78.631 60.31,15.72 87.82,-1.322 87.82,-1.322 z"
     fill="#67647e"
     id="path40" />
  <g
     opacity="0.1"
     id="g42"
     transform="translate(-991.99799)">
    <path
       d="m 1333.74,370.928 c 0,0 -27.53,17.034 -87.85,1.307 -60.32,-15.728 -53.76,-78.631 -53.76,-78.631 l -9.48,1.234 c 0.18,-4.033 0.31,-6.453 0.31,-6.453 l 49.83,-6.549 c 0,0 -6.56,62.911 53.75,78.631 60.31,15.72 87.85,-1.307 87.85,-1.307 l -6.55,26.213 c 0,0 -17.69,2.307 -38.49,3.17 z"
       fill="#000000"
       id="path41" />
    <path
       d="m 1217.29,549.314 c -7.92,-5.276 -16.94,-8.685 -26.37,-9.969 -4.53,-0.602 -8.73,-2.677 -11.96,-5.906 -3.24,-3.229 -5.31,-7.432 -5.92,-11.96 -7.7,-60.249 39.61,-118.426 49.22,-125.653 10.5,-7.864 15.74,1.307 15.74,1.307 3.71,0.974 7.49,1.693 11.3,2.153 -17,22.584 -41.31,65.904 -35.62,110.394 0.6,4.527 2.68,8.73 5.91,11.959 3.24,3.229 7.44,5.304 11.97,5.906 9.43,1.284 18.44,4.693 26.36,9.969 l 23.4,15.574 -60.32,-1.314 z"
       fill="#000000"
       id="path42" />
  </g>
  <path
     d="m 113.88201,366.83 c -45.559992,0 -82.489992,-36.916 -82.489992,-82.454 0,-45.538 36.93,-82.454 82.489992,-82.454 45.56,0 82.49,36.916 82.49,82.454 0,45.538 -36.93,82.454 -82.49,82.454 z"
     fill="#fac000"
     id="path43" />
  <path
     d="m 201.61201,344.303 c -45.56,0 -82.49,-36.916 -82.49,-82.454 0,-45.539 36.93,-82.454 82.49,-82.454 45.56,0 82.49,36.915 82.49,82.454 0,45.538 -36.93,82.454 -82.49,82.454 z"
     fill="#fac000"
     id="path44" />
  <path
     d="m 298.19201,345.107 c -45.56,0 -82.49,-36.916 -82.49,-82.454 0,-45.538 36.93,-82.454 82.49,-82.454 45.56,0 82.49,36.916 82.49,82.454 0,45.538 -36.93,82.454 -82.49,82.454 z"
     fill="#fac000"
     id="path45" />
  <path
     d="m 329.57201,366.83 c -45.55,0 -82.49,-36.916 -82.49,-82.454 0,-45.538 36.94,-82.454 82.49,-82.454 45.56,0 82.5,36.916 82.5,82.454 0,45.538 -36.94,82.454 -82.5,82.454 z"
     fill="#fac000"
     id="path46" />
  <path
     d="m 382.70201,374.068 c -45.56,0 -82.49,-36.916 -82.49,-82.454 0,-45.538 36.93,-82.454 82.49,-82.454 45.56,0 82.49,36.916 82.49,82.454 0,45.538 -36.93,82.454 -82.49,82.454 z"
     fill="#fac000"
     id="path47" />
  <path
     d="m 404.43201,308.912 c -45.56,0 -82.49,-36.916 -82.49,-82.454 0,-45.538 36.93,-82.454 82.49,-82.454 45.56,0 82.49,36.916 82.49,82.454 0,45.538 -36.93,82.454 -82.49,82.454 z"
     fill="#fac000"
     id="path48" />
  <path
     d="m 380.29201,233.291 c -45.56,0 -82.5,-36.916 -82.5,-82.454 0,-45.538 36.94,-82.4542 82.5,-82.4542 45.55,0 82.49,36.9162 82.49,82.4542 0,45.538 -36.94,82.454 -82.49,82.454 z"
     fill="#fac000"
     id="path49" />
  <path
     d="m 334.41201,233.291 c -45.56,0 -82.5,-36.916 -82.5,-82.454 0,-45.538 36.94,-82.4542 82.5,-82.4542 45.56,0 82.49,36.9162 82.49,82.4542 0,45.538 -36.93,82.454 -82.49,82.454 z"
     fill="#fac000"
     id="path50" />
  <path
     d="m 307.85201,199.506 c -45.56,0 -82.5,-36.916 -82.5,-82.454 0,-45.5384 36.94,-82.4543 82.5,-82.4543 45.56,0 82.49,36.9159 82.49,82.4543 0,45.538 -36.93,82.454 -82.49,82.454 z"
     fill="#fac000"
     id="path51" />
  <path
     d="m 240.24201,236.506 c -45.56,0 -82.49,-36.916 -82.49,-82.454 0,-45.538 36.93,-82.4543 82.49,-82.4543 45.56,0 82.49,36.9163 82.49,82.4543 0,45.538 -36.93,82.454 -82.49,82.454 z"
     fill="#fac000"
     id="path52" />
  <path
     d="m 82.492018,308.912 c -45.56,0 -82.491999980148,-36.916 -82.491999980148,-82.454 0,-45.538 36.931999980148,-82.454 82.491999980148,-82.454 45.559992,0 82.489992,36.916 82.489992,82.454 0,45.538 -36.93,82.454 -82.489992,82.454 z"
     fill="#fac000"
     id="path53" />
  <path
     d="m 129.98201,267.877 c -45.559992,0 -82.489992,-36.916 -82.489992,-82.454 0,-45.538 36.93,-82.454 82.489992,-82.454 45.56,0 82.49,36.916 82.49,82.454 0,45.538 -36.93,82.454 -82.49,82.454 z"
     fill="#fac000"
     id="path54" />
  <path
     d="m 160.56201,226.849 c -45.56,0 -82.489992,-36.915 -82.489992,-82.454 0,-45.5377 36.929992,-82.4536 82.489992,-82.4536 45.56,0 82.5,36.9159 82.5,82.4536 0,45.539 -36.94,82.454 -82.5,82.454 z"
     fill="#fac000"
     id="path55" />
  <path
     d="m 218.51201,164.908 c -45.56,0 -82.49,-36.916 -82.49,-82.454 0,-45.5381 36.93,-82.454 82.49,-82.454 45.56,0 82.49,36.9159 82.49,82.454 0,45.538 -36.93,82.454 -82.49,82.454 z"
     fill="#fac000"
     id="path56" />
  <path
     d="m 110.66201,233.291 c -45.559992,0 -82.489992,-36.916 -82.489992,-82.454 0,-45.538 36.93,-82.4542 82.489992,-82.4542 45.56,0 82.5,36.9162 82.5,82.4542 0,45.538 -36.94,82.454 -82.5,82.454 z"
     fill="#fac000"
     id="path57" />
  <path
     opacity="0.1"
     d="m 31.752018,163.748 c 0,0 76.829992,-36.416 123.319992,28.124 z"
     fill="#000000"
     id="path58" />
  <path
     opacity="0.1"
     d="m 233.55201,89.9708 c 0,0 84.99,-2.5649 101.68,75.1872 z"
     fill="#000000"
     id="path59" />
  <path
     opacity="0.1"
     d="m 339.19201,258.673 c 0,0 76.83,-36.424 123.32,28.1 z"
     fill="#000000"
     id="path60" />
  <path
     d="m 308.70201,507.792 c 1.35,-1.117 3.02,-1.325 3.73,-0.465 0.71,0.861 0.19,2.463 -1.16,3.58 -0.53,0.454 -1.17,0.773 -1.85,0.931 l -5.79,4.66 -2.13,-2.762 5.93,-4.301 c 0.29,-0.641 0.72,-1.204 1.27,-1.643 z"
     fill="#a0616a"
     id="path62" />
  <path
     d="m 275.24201,518.305 c 0,-0.207 0,-2.004 1.33,-3.14 1.53,-1.305 3.69,-0.777 4.45,-0.592 1.74,0.428 1.89,1.178 3.53,1.948 3.07,1.441 -0.78,0.704 1.05,0.242 0.63,-0.16 9.73,-0.791 12,-2.185 4.4,-2.711 7.41,-4.355 7.41,-4.355 l 1.96,3.924 c 0,0 -2.84,3.944 -6.83,6.867 -4.1,2.998 -6.15,4.496 -9.26,5.076 -0.27,0.049 -6.86,1.175 -12.17,-2.791 -1.21,-0.905 -3.43,-2.563 -3.47,-4.994 z"
     fill="#e6e6e6"
     id="path63" />
  <path
     d="m 281.33201,508.322 c 3.78,0 6.84,-3.06 6.84,-6.835 0,-3.775 -3.06,-6.835 -6.84,-6.835 -3.77,0 -6.83,3.06 -6.83,6.835 0,3.775 3.06,6.835 6.83,6.835 z"
     fill="#a0616a"
     id="path64" />
  <path
     d="m 334.88201,547.408 -7.04,-7.205 -3.64,3.79 5.25,6.909 5.2,0.595 z"
     fill="#a0616a"
     id="path65" />
  <path
     d="m 294.67201,533.896 c 0.42,0.035 1.72,0.297 2.97,-0.391 0.86,-0.47 1.3,-1.168 1.44,-1.39 1.84,-2.755 8.88,-7.05 15.2,-7.314 1.43,-0.06 2.37,0.106 3.23,0.552 1.21,0.633 1.7,1.539 3.24,3.662 0.84,1.161 1.77,2.255 2.62,3.409 5,6.755 6.89,7.285 6.7,9.451 -0.22,2.403 -2.81,4.682 -4.53,4.419 -0.71,-0.108 -0.98,-0.598 -1.92,-1.591 -2.77,-2.911 -3.91,-2.373 -5.88,-4.603 -2.3,-2.604 -2,-4.762 -3.19,-4.846 -1.12,-0.077 -1.59,1.765 -3.96,4.211 -1.09,1.119 -1.86,1.633 -4.22,3.267 -9.17,6.362 -9.32,6.809 -11.17,7.317 -0.81,0.222 -6.56,1.797 -8.6,-0.71 -3.21,-3.924 4.36,-15.751 8.07,-15.443 z"
     fill="#2f2e41"
     id="path66" />
  <path
     d="m 332.72201,549.039 c 0.52,-0.233 1.13,-0.505 1.32,-1.13 0.13,-0.423 0.06,-0.944 -0.22,-1.304 -0.31,-0.416 -0.78,-0.471 -0.76,-0.545 0.03,-0.112 1.13,-0.068 2.34,0.359 0.23,0.081 1.26,0.458 2.57,1.483 1.06,0.821 0.91,0.986 1.57,1.46 2.03,1.453 3.93,0.308 5.03,1.671 0.42,0.526 0.6,1.273 0.42,1.877 -0.36,1.213 -2.09,1.631 -3.05,1.846 -2.28,0.519 -4.02,0.095 -5.82,-0.209 -6.15,-1.036 -9.61,-0.093 -10.07,-1.517 -0.09,-0.27 0.05,-0.247 0.53,-2.226 0.46,-1.952 0.45,-2.489 0.85,-2.645 0.6,-0.235 1,0.835 2.51,1.202 1.34,0.324 2.45,-0.172 2.78,-0.322 z"
     fill="#2f2e41"
     id="path67" />
  <path
     d="m 282.26201,502.796 c 0.27,-0.952 -0.06,-1.299 0.28,-1.726 0,0 0.13,-0.172 1.36,-0.636 -0.36,-2.098 -0.09,-2.452 -0.09,-2.452 0.31,-0.409 0.94,-0.508 1.36,-0.455 0.9,0.114 1.06,0.927 1.64,0.909 0.79,-0.025 1.75,-1.618 1.45,-2.998 -0.24,-1.126 -1.28,-1.962 -1.54,-1.817 -0.26,0.144 -1.2,-0.49 -1.55,-0.363 -0.24,0.087 -1.38,-0.029 -1.63,0.091 -0.29,0.13 -1.09,0.943 -1.17,0.841 -0.53,-0.712 -0.52,-0.96 -0.83,-1.114 -0.55,-0.271 -1.15,0.231 -2.18,0.727 -2.13,1.021 -2.75,0.412 -3.73,1.272 -0.49,0.434 -0.76,1.264 -1.27,2.907 -0.72,2.297 -1.07,3.445 -0.73,4.542 0.35,1.118 0.87,0.874 1.64,2.452 0.85,1.756 0.56,2.777 1.36,3.179 0.62,0.311 1.62,0.113 2,-0.454 0.65,-0.971 -1.02,-2.284 -0.45,-3.815 0.34,-0.939 1.42,-1.652 2.08,-1.453 0.75,0.224 0.81,1.565 1.28,1.544 0.4,-0.018 0.68,-1.015 0.72,-1.181 z"
     fill="#2f2e41"
     id="path68" />
  <path
     d="m 277.09201,509.337 c 1.39,-1.568 7.09,0.055 7.63,2.543 0.22,1.024 -0.59,1.456 -0.37,2.635 0.34,1.723 2.23,1.606 3.64,3.361 1.99,2.491 -0.06,4.926 2.18,9.083 0.48,0.889 0.88,1.637 1.73,2.362 1.93,1.663 3.73,1.093 4.72,2.634 0.74,1.153 0.43,2.574 0.36,2.907 -0.29,1.365 -1.08,1.698 -1.63,2.816 -0.93,1.861 0.12,3.227 0.18,5.45 0.07,2.782 -1.4,6.638 -4.36,7.903 -3.32,1.422 -7.33,-0.932 -9.27,-3.27 -1.16,-1.395 -1.49,-2.681 -2,-4.269 -2.26,-7.098 -3.54,-6.456 -5.27,-12.082 -1.98,-6.431 -2.36,-13.966 0,-16.35 0.32,-0.316 1.18,-1.047 1.73,-2.362 0.74,-1.77 0.1,-2.659 0.73,-3.361 z"
     fill="#e6e6e6"
     id="path69" />
  <path
     d="m 45.702018,518.067 c -2.08,0.394 -3.57,1.79 -3.32,3.117 0.25,1.327 2.15,2.083 4.23,1.688 0.84,-0.146 1.63,-0.491 2.3,-1.004 l 8.82,-1.784 -0.71,-3.483 -8.81,1.56 c -0.81,-0.231 -1.67,-0.263 -2.51,-0.094 z"
     fill="#ffb6b6"
     id="path70" />
  <path
     d="m 83.542018,505.807 -3.18,7.415 -17.09,6.422 -14.32,1.266 -0.47,-3.432 15.43,-3.793 15.69,-8.094 z"
     fill="#e6e6e6"
     id="path71" />
  <path
     d="m 52.622018,534.62 -2.81,7.915 -4.09,-2.584 2.07,-8.252 z"
     fill="#ffb6b6"
     id="path72" />
  <path
     d="m 39.632018,532.164 -7.9,8.092 3.39,3.336 8.13,-6.828 z"
     fill="#ffb6b6"
     id="path73" />
  <path
     d="m 85.052018,505.13 -0.11,-0.632 -2.23,-4.012 -6.84,2.056 1.47,5.584 z"
     fill="#ffb6b6"
     id="path74" />
  <path
     d="m 83.092018,532.464 0.31,2.719 c 0,0 1.28,11.404 -5.77,12.56 -7.05,1.155 -10.11,2.17 -14.53,-4.765 l -6.95,-11.391 -3.66,4.676 -5.22,-3.821 c 0,0 3.14,-14.288 6.03,-14.934 0.36,-0.081 0.72,-0.128 1.08,-0.148 2.4,-0.134 4.71,0.963 6.22,2.841 l 8.62,10.748 2.95,-1.467 z"
     fill="#2f2e41"
     id="path75" />
  <path
     d="m 44.172018,542.369 1.52,-3.143 4.84,3.103 c 0,0 1.23,3.956 -0.39,4.558 -1.61,0.602 -6.18,0.034 -6.18,0.034 0,0 -8.29,2.107 -8.53,0.48 -0.24,-1.628 3.75,-2.131 3.75,-2.131 z"
     fill="#2f2e41"
     id="path76" />
  <path
     d="m 61.892018,539.569 -12.9,-7.51 -6.25,5.997 -4.53,-4.931 c 0,0 7.58,-12.08 9.92,-12.708 2.34,-0.627 6.14,-1.123 6.14,-1.123 l 12,10.306 z"
     fill="#2f2e41"
     id="path77" />
  <path
     d="m 31.522018,539.538 4.34,4.393 -0.54,0.491 c 0,0 -0.92,4.756 -3.51,3.249 -2.6,-1.508 -2.8,-1.865 -2.8,-1.865 0,0 -7.2,1.888 -8.03,-0.991 -0.83,-2.88 1.19,-2.405 1.19,-2.405 l 1.85,1.026 z"
     fill="#2f2e41"
     id="path78" />
  <path
     d="m 78.112018,504.464 c 3.21,-0.112 5.73,-2.804 5.61,-6.013 -0.11,-3.209 -2.8,-5.719 -6.01,-5.607 -3.21,0.112 -5.72,2.804 -5.61,6.013 0.11,3.208 2.81,5.719 6.01,5.607 z"
     fill="#ffb6b6"
     id="path79" />
  <path
     d="m 76.842018,506.964 8.27,-2.834 c 0,0 3.53,7.512 3.11,10.98 -0.43,3.469 -4.82,20.077 -4.82,20.077 l -11.23,-5.701 c 0,0 -0.3,-3.625 -0.91,-5.24 -0.6,-1.615 -2.5,-6.547 1.17,-10.856 3.67,-4.31 4.41,-6.426 4.41,-6.426 z"
     fill="#e6e6e6"
     id="path80" />
  <path
     d="m 59.792018,545.73 c -1.31,1.676 -1.5,3.706 -0.43,4.535 1.07,0.828 2.99,0.141 4.29,-1.535 0.53,-0.663 0.89,-1.443 1.06,-2.274 l 5.43,-7.171 -2.84,-2.139 -5.57,6.995 c -0.77,0.367 -1.43,0.912 -1.94,1.589 z"
     fill="#ffb6b6"
     id="path81" />
  <path
     d="m 83.382018,510.404 2.25,7.75 -9.13,15.804 -9.52,10.257 -3.29,-2.541 9.52,-12.724 6.99,-16.21 z"
     fill="#e6e6e6"
     id="path82" />
  <path
     d="m 72.522018,497.843 c 1.49,-0.056 1.58,-0.049 1.82,-0.064 1.84,-0.113 2.3,-0.857 3.24,-0.84 1.68,0.03 -0.24,8.49 -1.02,12.397 -0.77,3.832 2.39,7.131 2.62,7.361 3.2,3.25 8.65,3.675 9.53,2.212 0.71,-1.183 -2.02,-2.85 -1.46,-5.402 0.54,-2.495 3.47,-2.333 4.2,-4.691 0.77,-2.47 -2.14,-3.6 -4.15,-9.49 -1.15,-3.382 -0.99,-4.026 -2.03,-6.109 -2.78,-5.57 -15.34,-2.719 -13.73,2.479 0.31,1.005 -0.38,2.198 0.98,2.147 z"
     fill="#2f2e41"
     id="path83" />
</svg>
