<svg width="70" height="70" viewBox="0 0 70 70" fill="none" xmlns="http://www.w3.org/2000/svg">
<rect width="70" height="70" rx="10" fill="#FFF3CC"/>
<g clip-path="url(#clip0_508_45)">
<path d="M34.5777 23.4871C33.8758 23.4871 33.3016 22.9144 33.3016 22.2144V20.9417C33.3016 17.4258 36.1569 14.5781 39.6823 14.5781H40.9585C41.6603 14.5781 42.2346 15.1508 42.2346 15.8508V17.1236C42.2346 20.6394 39.3792 23.4871 35.8539 23.4871H34.5777ZM16.7117 37.487C16.7117 31.4177 19.5591 24.7599 25.6447 24.7599C27.8221 24.7599 30.4063 25.5792 32.2408 26.2951C33.7402 26.8757 35.4232 26.8757 36.9226 26.2951C38.7491 25.5871 41.3413 24.7599 43.5187 24.7599C49.6043 24.7599 52.4517 31.4177 52.4517 37.487C52.4517 47.6687 46.071 55.305 39.6903 55.305C38.3743 55.305 36.6515 54.78 35.5827 54.4062C34.9366 54.1834 34.2348 54.1834 33.5887 54.4062C32.5199 54.78 30.7971 55.305 29.4811 55.305C23.0924 55.305 16.7117 47.6687 16.7117 37.487Z" fill="#FAC000"/>
</g>
<defs>
<clipPath id="clip0_508_45">
<rect width="35.7321" height="40.7269" fill="white" transform="translate(16.7117 14.5781)"/>
</clipPath>
</defs>
</svg>
