<svg width="70" height="70" viewBox="0 0 70 70" fill="none" xmlns="http://www.w3.org/2000/svg">
<rect width="70" height="70" rx="10" fill="#FFF3CC"/>
<g clip-path="url(#clip0_508_46)">
<path d="M35.0605 22.3296C28.851 22.3296 23.5973 26.3982 21.8119 32.0074C24.4664 30.6643 27.4605 29.9138 30.6364 29.9138H37.5886C38.2838 29.9138 38.8526 30.4826 38.8526 31.1778C38.8526 31.8731 38.2838 32.4419 37.5886 32.4419H36.3245H30.6364C29.325 32.4419 28.053 32.592 26.8206 32.8685C24.7745 33.3346 22.8784 34.1641 21.1799 35.2938C16.5978 38.3512 13.572 43.5732 13.572 49.5062V50.7703C13.572 51.821 14.4173 52.6663 15.4681 52.6663C16.5188 52.6663 17.3641 51.821 17.3641 50.7703V49.5062C17.3641 45.6589 18.9994 42.1986 21.6144 39.7732C23.1786 45.7379 28.6061 50.1383 35.0605 50.1383H35.1395C45.5756 50.083 54.0209 39.7969 54.0209 27.1171C54.0209 23.7517 53.4284 20.5521 52.354 17.6685C52.1486 17.1234 51.3507 17.1471 51.0742 17.6606C49.5889 20.4415 46.6501 22.3296 43.2767 22.3296H35.0605Z" fill="#FAC000"/>
</g>
<defs>
<clipPath id="clip0_508_46">
<rect width="40.4489" height="40.4489" fill="white" transform="translate(13.572 14.7461)"/>
</clipPath>
</defs>
</svg>
